<svg xmlns="http://www.w3.org/2000/svg" viewBox="0 0 96 96" role="img" aria-label="Daisy">
  <defs>
    <filter id="softShadow" x="-25%" y="-25%" width="150%" height="150%">
      <feDropShadow dx="0" dy="2" stdDeviation="2" flood-color="#2a3d22" flood-opacity=".22"/>
    </filter>
    <linearGradient id="petalFill" x1="0" x2="0" y1="0" y2="1">
      <stop offset="0%" stop-color="#ffffff"/>
      <stop offset="58%" stop-color="#f6fbfb"/>
      <stop offset="100%" stop-color="#dceced"/>
    </linearGradient>
    <radialGradient id="centerFill" cx="42%" cy="38%" r="64%">
      <stop offset="0%" stop-color="#ffe57b"/>
      <stop offset="48%" stop-color="#f8bf28"/>
      <stop offset="100%" stop-color="#d78f13"/>
    </radialGradient>
  </defs>
  <g filter="url(#softShadow)">
    <g fill="url(#petalFill)" stroke="#b9cfd0" stroke-width="1.35" stroke-linejoin="round">
      <ellipse cx="48" cy="19.5" rx="7.8" ry="18.5" transform="rotate(2 48 19.5)"/>
      <ellipse cx="48" cy="76.5" rx="7.8" ry="18.5" transform="rotate(178 48 76.5)"/>
      <ellipse cx="19.5" cy="48" rx="18.5" ry="7.8" transform="rotate(-2 19.5 48)"/>
      <ellipse cx="76.5" cy="48" rx="18.5" ry="7.8" transform="rotate(2 76.5 48)"/>
      <ellipse cx="28" cy="27.5" rx="7.3" ry="18" transform="rotate(-43 28 27.5)"/>
      <ellipse cx="68" cy="27.5" rx="7.3" ry="18" transform="rotate(43 68 27.5)"/>
      <ellipse cx="28" cy="68.5" rx="7.3" ry="18" transform="rotate(43 28 68.5)"/>
      <ellipse cx="68" cy="68.5" rx="7.3" ry="18" transform="rotate(-43 68 68.5)"/>
      <ellipse cx="38" cy="21.5" rx="6.4" ry="17" transform="rotate(-18 38 21.5)"/>
      <ellipse cx="58" cy="21.5" rx="6.4" ry="17" transform="rotate(18 58 21.5)"/>
      <ellipse cx="38" cy="74.5" rx="6.4" ry="17" transform="rotate(18 38 74.5)"/>
      <ellipse cx="58" cy="74.5" rx="6.4" ry="17" transform="rotate(-18 58 74.5)"/>
      <ellipse cx="21.5" cy="38" rx="17" ry="6.4" transform="rotate(18 21.5 38)"/>
      <ellipse cx="74.5" cy="38" rx="17" ry="6.4" transform="rotate(-18 74.5 38)"/>
      <ellipse cx="21.5" cy="58" rx="17" ry="6.4" transform="rotate(-18 21.5 58)"/>
      <ellipse cx="74.5" cy="58" rx="17" ry="6.4" transform="rotate(18 74.5 58)"/>
    </g>
    <circle cx="48" cy="48" r="18.2" fill="url(#centerFill)" stroke="#b87912" stroke-width="1.4"/>
    <g fill="#c98212" opacity=".42">
      <circle cx="43" cy="43" r="1.2"/>
      <circle cx="50" cy="41" r="1"/>
      <circle cx="55" cy="47" r="1.1"/>
      <circle cx="46" cy="52" r="1"/>
      <circle cx="52" cy="55" r="1.25"/>
      <circle cx="39" cy="49" r=".9"/>
    </g>
  </g>
</svg>
